<mxfile host="Electron" modified="2024-11-23T18:48:47.793Z" agent="Mozilla/5.0 (Windows NT 10.0; Win64; x64) AppleWebKit/537.36 (KHTML, like Gecko) draw.io/24.2.5 Chrome/120.0.6099.109 Electron/28.1.0 Safari/537.36" etag="515tE-xAbpNZJxVCv5a9" version="24.2.5" type="device">
  <diagram name="login/signup" id="IPAeK0R3kPqKzKt8NRgY">
    <mxGraphModel dx="1562" dy="909" grid="1" gridSize="10" guides="1" tooltips="1" connect="1" arrows="1" fold="1" page="1" pageScale="1" pageWidth="1169" pageHeight="827" math="0" shadow="0">
      <root>
        <mxCell id="0" />
        <mxCell id="1" parent="0" />
        <mxCell id="2UEdKpo8fqgeGEC5ayKU-1" value="" style="rounded=0;whiteSpace=wrap;html=1;" vertex="1" parent="1">
          <mxGeometry x="70" y="84" width="1010" height="660" as="geometry" />
        </mxCell>
        <mxCell id="2UEdKpo8fqgeGEC5ayKU-3" value="" style="html=1;verticalLabelPosition=bottom;align=center;labelBackgroundColor=#ffffff;verticalAlign=top;strokeWidth=2;strokeColor=#0080F0;shadow=0;dashed=0;shape=mxgraph.ios7.icons.settings;" vertex="1" parent="1">
          <mxGeometry x="1030" y="100" width="30" height="30" as="geometry" />
        </mxCell>
        <mxCell id="2UEdKpo8fqgeGEC5ayKU-4" value="" style="rounded=1;whiteSpace=wrap;html=1;" vertex="1" parent="1">
          <mxGeometry x="426.25" y="226" width="297.5" height="376" as="geometry" />
        </mxCell>
        <mxCell id="2UEdKpo8fqgeGEC5ayKU-6" value="username:" style="text;html=1;align=center;verticalAlign=middle;whiteSpace=wrap;rounded=0;" vertex="1" parent="1">
          <mxGeometry x="545" y="350" width="60" height="30" as="geometry" />
        </mxCell>
        <mxCell id="2UEdKpo8fqgeGEC5ayKU-7" value="password:" style="text;html=1;align=center;verticalAlign=middle;whiteSpace=wrap;rounded=0;" vertex="1" parent="1">
          <mxGeometry x="545" y="420" width="60" height="30" as="geometry" />
        </mxCell>
        <mxCell id="2UEdKpo8fqgeGEC5ayKU-8" value="" style="rounded=0;whiteSpace=wrap;html=1;" vertex="1" parent="1">
          <mxGeometry x="515" y="450" width="120" height="20" as="geometry" />
        </mxCell>
        <mxCell id="2UEdKpo8fqgeGEC5ayKU-9" value="" style="rounded=0;whiteSpace=wrap;html=1;" vertex="1" parent="1">
          <mxGeometry x="515" y="380" width="120" height="20" as="geometry" />
        </mxCell>
        <mxCell id="2UEdKpo8fqgeGEC5ayKU-10" value="" style="sketch=0;html=1;aspect=fixed;strokeColor=none;shadow=0;fillColor=#3B8DF1;verticalAlign=top;labelPosition=center;verticalLabelPosition=bottom;shape=mxgraph.gcp2.lock" vertex="1" parent="1">
          <mxGeometry x="555.5" y="280" width="39" height="50" as="geometry" />
        </mxCell>
        <mxCell id="2UEdKpo8fqgeGEC5ayKU-11" value="LOGIN" style="rounded=1;whiteSpace=wrap;html=1;" vertex="1" parent="1">
          <mxGeometry x="480.5" y="510" width="75" height="30" as="geometry" />
        </mxCell>
        <mxCell id="2UEdKpo8fqgeGEC5ayKU-13" value="SIGN UP" style="rounded=1;whiteSpace=wrap;html=1;" vertex="1" parent="1">
          <mxGeometry x="594.5" y="510" width="75" height="30" as="geometry" />
        </mxCell>
      </root>
    </mxGraphModel>
  </diagram>
</mxfile>
